# xmcd
#
# Track frame offsets: 
#        225
#        23081
#        36378
#        52774
#        69073
#        84162
#        101841
#        115205
#        130111
#        142706
#        153912
#
# Disc length: 2267 seconds
#
# Revision: 0
# Processed by: cddbd v1.5.1PL2 Copyright (c) Steve Scherf et al.
# Submitted via: ExactAudioCopy v0.95a5
#
DISCID=7c08d80b
DTITLE=Packway Handle Band - Chaff Harvest
DYEAR=2003
DGENRE=Bluegrass
TTITLE0=All the time in the world
TTITLE1=Shelva Ann
TTITLE2=The World is Waiting for the Sunrise
TTITLE3=Totz, Kentucky
TTITLE4=Mac the Weatherman
TTITLE5=Inverted Umbrella Parachute
TTITLE6=Cryin' Sorrows
TTITLE7=Red Haired Boy
TTITLE8=Throw Away the Key
TTITLE9=Tell it to me
TTITLE10=In the Pines
EXTD=
EXTT0=
EXTT1=
EXTT2=
EXTT3=
EXTT4=
EXTT5=
EXTT6=
EXTT7=
EXTT8=
EXTT9=
EXTT10=
PLAYORDER=
